<?xml version="1.0" standalone="no"?>
<!DOCTYPE svg PUBLIC "-//W3C//DTD SVG 20010904//EN"
 "http://www.w3.org/TR/2001/REC-SVG-20010904/DTD/svg10.dtd">
<svg version="1.0" xmlns="http://www.w3.org/2000/svg"
 width="700.000000pt" height="700.000000pt" viewBox="0 0 700.000000 700.000000"
 preserveAspectRatio="xMidYMid meet">

<g transform="translate(0.000000,700.000000) scale(0.100000,-0.100000)"
fill="#000000" stroke="none">
<path d="M5323 6825 c-23 -7 -56 -23 -72 -36 -16 -13 -41 -32 -55 -41 -13 -10
-37 -36 -53 -57 -15 -22 -47 -67 -70 -100 -24 -33 -46 -62 -50 -64 -5 -3 -30
6 -58 20 -91 44 -222 58 -346 35 -31 -5 -64 -14 -75 -20 -10 -6 -35 -16 -54
-23 -19 -7 -65 -40 -103 -72 l-68 -59 -62 11 c-34 7 -100 19 -147 27 -201 37
-515 54 -655 35 -261 -34 -320 -43 -415 -60 -58 -10 -118 -24 -135 -30 -16 -6
-91 -29 -165 -52 -221 -68 -559 -244 -689 -359 -18 -16 -37 -30 -41 -30 -12 0
-139 -134 -168 -177 -14 -21 -33 -46 -44 -56 -10 -10 -18 -21 -18 -25 0 -4
-13 -16 -29 -25 -88 -52 -355 -305 -540 -512 -35 -38 -80 -89 -102 -113 -21
-23 -44 -52 -50 -65 -7 -12 -31 -44 -54 -72 -55 -66 -142 -189 -248 -351 -100
-153 -151 -242 -259 -459 -123 -245 -148 -298 -148 -312 0 -6 -16 -45 -35 -87
-19 -43 -35 -85 -35 -95 0 -9 -4 -21 -9 -26 -4 -6 -16 -39 -25 -75 -10 -36
-29 -99 -42 -140 -96 -303 -90 -604 13 -712 15 -16 32 -28 38 -28 10 0 98 54
210 129 22 15 53 32 68 39 15 7 33 17 40 22 11 10 42 32 162 114 60 40 225
186 293 257 26 28 58 60 72 72 13 12 46 44 72 72 46 49 72 56 50 12 -28 -55
-69 -218 -92 -367 -6 -36 -15 -92 -20 -125 -24 -156 -22 -267 9 -505 10 -75
51 -249 72 -305 19 -49 101 -208 121 -234 113 -146 264 -246 411 -271 34 -6
89 -17 122 -25 33 -8 82 -17 108 -20 l48 -6 -5 -52 c-3 -29 -8 -86 -11 -127
-9 -115 -54 -489 -66 -545 -10 -48 -17 -115 -38 -340 -6 -55 -12 -171 -15
-257 l-6 -158 29 0 29 0 6 138 c4 75 15 231 26 347 10 116 22 246 25 290 4 44
12 114 20 155 15 82 43 317 53 450 l7 85 103 5 c73 4 105 9 111 19 20 32 1 38
-147 45 -314 14 -534 76 -656 184 -101 90 -169 194 -225 347 -52 142 -60 176
-78 320 -16 129 -12 492 7 590 5 28 14 75 19 105 6 30 15 64 20 75 5 11 24 67
42 125 18 58 54 144 81 193 26 48 48 93 48 100 0 7 17 37 37 65 96 133 170
248 221 342 90 168 152 297 152 319 0 4 9 16 20 26 20 18 21 18 35 -1 8 -10
15 -27 15 -36 0 -20 90 -118 108 -118 7 0 12 -4 12 -9 0 -13 53 -29 127 -39
48 -7 71 -5 95 6 64 28 98 47 98 53 0 4 11 10 25 13 14 4 25 11 25 17 0 6 14
28 30 49 17 21 33 52 36 69 4 17 10 31 15 31 13 0 11 57 -3 80 -9 14 -10 23
-3 28 6 4 9 18 8 32 0 14 -1 36 -2 49 -1 17 -5 21 -17 17 -11 -4 -14 -1 -10
12 7 20 -84 122 -144 163 -32 22 -45 24 -152 24 -109 0 -118 -1 -142 -24 -28
-27 -31 -26 -44 8 -8 22 -9 22 -25 7 -9 -9 -21 -36 -27 -59 -39 -165 -210
-576 -280 -677 -9 -14 -31 -51 -49 -82 -38 -69 -175 -274 -206 -308 -13 -14
-35 -43 -49 -64 -42 -63 -192 -234 -293 -334 -29 -30 -53 -58 -53 -63 0 -5 -9
-9 -20 -9 -12 0 -32 18 -52 48 -43 62 -188 292 -188 298 0 3 -17 36 -39 72
-21 37 -70 129 -109 205 l-71 137 78 153 c93 181 190 360 201 367 4 3 18 23
31 45 56 94 66 110 113 174 26 36 51 73 54 81 3 8 32 49 64 90 32 41 62 80 66
85 86 115 248 299 385 435 237 237 272 265 300 242 11 -10 24 4 65 71 42 69
134 174 208 237 42 36 213 154 237 163 9 3 41 21 69 39 29 18 78 44 108 57 30
13 66 29 80 36 27 14 139 59 230 92 54 20 262 72 370 92 30 6 91 18 135 27
105 20 472 29 630 15 130 -11 238 -30 355 -61 41 -11 95 -25 120 -31 162 -40
483 -205 645 -331 28 -21 82 -63 120 -93 39 -30 75 -55 81 -55 5 0 48 -36 94
-80 46 -44 90 -80 98 -80 42 0 356 -281 442 -396 14 -18 61 -76 105 -128 135
-160 257 -333 446 -636 19 -30 50 -84 68 -120 19 -36 42 -77 52 -91 10 -14 27
-49 39 -78 11 -29 29 -70 41 -92 22 -45 25 -30 -38 -199 -26 -70 -119 -286
-133 -310 -5 -8 -22 -42 -38 -75 -16 -33 -46 -87 -67 -119 l-38 -60 -25 30
c-58 69 -75 92 -105 139 -18 28 -44 64 -59 80 -16 17 -28 34 -28 39 0 5 -17
32 -38 60 -21 28 -73 105 -114 171 -42 66 -92 145 -112 175 -84 133 -214 373
-372 688 -93 186 -124 236 -124 203 0 -5 16 -48 35 -95 31 -76 48 -159 27
-131 -10 13 -38 31 -92 57 -51 24 -144 28 -204 8 -59 -19 -140 -77 -178 -128
-39 -52 -54 -93 -62 -167 -4 -37 -3 -42 3 -20 7 25 9 20 10 -32 0 -34 5 -63 9
-65 5 -1 28 -31 52 -65 24 -35 49 -63 55 -63 6 0 27 -11 47 -25 20 -14 46 -25
57 -25 11 0 23 -5 27 -11 11 -18 172 -6 214 16 117 60 177 140 179 238 1 20 5
37 11 37 12 0 47 -55 95 -151 31 -61 103 -187 247 -429 12 -19 36 -57 54 -85
18 -27 51 -102 72 -165 22 -63 53 -149 70 -190 17 -41 44 -115 58 -165 15 -49
31 -97 35 -105 14 -26 49 -184 64 -287 8 -54 19 -125 26 -158 13 -72 7 -398
-8 -435 -6 -14 -19 -58 -28 -99 -39 -161 -158 -303 -313 -372 -115 -52 -245
-100 -297 -110 -52 -9 -127 -29 -206 -54 -26 -8 -58 -15 -73 -15 -14 0 -27 -4
-27 -10 -5 -31 -1 -35 36 -40 l40 -5 17 -215 c9 -118 22 -264 28 -325 6 -60
15 -152 20 -203 5 -51 13 -114 19 -140 6 -26 15 -101 21 -167 10 -107 18 -184
49 -460 12 -101 17 -115 47 -115 27 0 29 9 14 91 -5 30 -19 148 -31 264 -11
115 -23 213 -26 218 -2 4 -11 85 -19 180 -15 182 -47 462 -64 562 -6 33 -14
110 -20 170 -5 61 -12 118 -15 127 -8 21 -1 25 112 54 145 38 330 101 396 135
201 105 307 238 365 459 22 85 25 115 26 295 0 153 -4 223 -18 300 -34 185
-53 269 -65 292 -5 10 -18 54 -29 98 -20 79 -43 146 -75 215 -21 47 -38 112
-27 108 11 -4 107 -134 126 -170 8 -16 18 -28 22 -28 4 0 16 -15 26 -32 11
-18 42 -58 70 -89 28 -30 69 -77 91 -103 41 -49 105 -122 204 -235 76 -86 260
-271 270 -271 4 0 16 18 26 41 17 36 19 68 18 292 -1 139 -6 277 -12 307 -6
30 -18 105 -26 165 -17 122 -50 265 -71 307 -8 15 -14 36 -14 46 0 11 -7 33
-15 48 -8 16 -15 36 -15 45 0 18 -39 117 -80 204 -15 33 -31 71 -35 85 -4 14
-15 39 -25 55 -10 17 -41 75 -70 130 -61 120 -116 213 -190 324 -30 46 -68
104 -84 129 -15 26 -42 65 -60 86 -17 22 -40 54 -51 72 -42 68 -178 238 -294
368 -148 167 -351 344 -436 381 -16 7 -55 37 -86 66 -119 114 -158 149 -169
149 -6 0 -29 17 -53 39 -23 21 -62 52 -87 67 -25 16 -69 47 -98 68 -29 21 -68
46 -85 56 -93 49 -175 94 -195 107 -13 8 -47 23 -75 33 -148 52 -207 76 -207
86 0 20 120 105 178 127 80 29 264 31 337 3 80 -30 95 -49 95 -120 1 -134 51
-268 140 -374 55 -65 127 -112 175 -112 36 0 83 37 90 71 4 16 11 31 16 34 24
15 -2 144 -50 246 -12 25 -45 69 -74 99 l-52 54 50 14 c180 48 320 176 301
275 -8 45 -63 95 -121 113 -58 17 -86 17 -142 -1z m139 -57 c52 -15 84 -58 67
-90 -14 -26 -50 -74 -79 -103 -27 -28 -129 -69 -221 -89 -72 -16 -77 -16 -107
1 -35 20 -40 34 -16 54 8 7 24 29 34 49 28 55 120 147 170 169 51 23 96 26
152 9z m-279 -382 c109 -78 166 -173 174 -291 5 -62 2 -73 -17 -98 -29 -36
-53 -31 -125 26 -83 66 -155 204 -172 330 -8 56 0 67 49 67 33 0 54 -8 91 -34z
m-2823 -2136 c0 -5 -5 -10 -11 -10 -5 0 -7 5 -4 10 3 6 8 10 11 10 2 0 4 -4 4
-10z"/>
<path d="M2225 5551 c-81 -40 -128 -101 -150 -195 -15 -65 -14 -73 2 -118 20
-57 48 -86 126 -127 90 -49 184 -41 286 23 51 33 70 61 80 124 29 182 -63 303
-234 310 -54 2 -79 -2 -110 -17z m26 -94 c44 -30 49 -64 14 -106 -32 -38 -79
-42 -119 -10 -23 18 -26 26 -21 53 10 44 31 74 57 79 13 2 26 5 29 6 3 0 21
-9 40 -22z"/>
<path d="M4693 5454 c-62 -31 -130 -152 -112 -199 4 -11 8 -31 8 -45 1 -15 20
-47 46 -77 37 -42 56 -55 102 -68 94 -27 195 -5 261 57 31 30 42 49 52 97 11
53 10 65 -4 103 -26 65 -43 87 -94 119 -42 27 -53 29 -136 29 -63 0 -101 -5
-123 -16z m101 -80 c19 -14 25 -28 26 -54 0 -20 -5 -41 -12 -48 -23 -23 -121
-8 -140 21 -14 21 -8 70 9 90 22 23 78 19 117 -9z"/>
<path d="M3364 5298 c-5 -16 -1 -26 15 -38 12 -8 40 -30 62 -47 23 -18 44 -33
48 -33 12 0 102 113 98 124 -2 7 -44 12 -110 14 -102 3 -106 2 -113 -20z"/>
<path d="M3006 5091 c-4 -5 -3 -16 0 -25 8 -21 111 -90 159 -107 22 -7 41 -14
43 -15 1 -1 -6 -36 -18 -78 -27 -101 -27 -212 0 -269 59 -125 207 -176 425
-148 114 15 166 34 234 85 93 70 124 196 82 334 -11 39 -21 74 -21 79 0 5 18
17 40 27 26 11 42 26 46 41 10 39 1 48 -26 27 -30 -24 -136 -52 -193 -52 -77
0 -257 71 -257 100 0 20 -34 9 -64 -21 -43 -41 -150 -88 -203 -89 -54 0 -209
71 -218 100 -7 21 -20 26 -29 11z"/>
<path d="M3360 4129 c-255 -20 -644 -86 -816 -139 -53 -17 -102 -30 -108 -30
-14 0 -163 -46 -191 -59 -51 -24 -113 -48 -140 -55 -45 -11 -315 -145 -355
-176 -19 -15 -50 -35 -67 -44 -45 -23 -203 -178 -203 -199 0 -30 24 -19 90 44
80 75 226 177 237 165 2 -2 -9 -30 -25 -62 -27 -55 -94 -203 -113 -249 -4 -11
-22 -69 -38 -130 -17 -60 -35 -123 -40 -140 -30 -92 -53 -277 -53 -425 -1
-214 18 -300 103 -475 64 -132 164 -242 301 -332 53 -34 100 -63 103 -63 4 0
39 -15 78 -34 111 -53 193 -78 370 -113 58 -11 46 -28 -92 -117 -53 -34 -111
-68 -128 -75 -35 -14 -43 -35 -18 -45 59 -22 306 151 474 333 56 62 100 101
110 99 8 -2 26 -21 38 -43 42 -74 27 -217 -44 -425 -29 -85 -118 -276 -133
-285 -6 -4 -19 -24 -30 -45 -11 -21 -36 -59 -57 -84 -48 -56 -83 -113 -83
-132 0 -8 7 -17 16 -21 35 -13 216 240 284 399 17 40 38 87 46 105 8 17 14 35
14 40 0 18 25 63 34 60 4 -1 18 -35 31 -74 56 -178 135 -299 255 -394 57 -45
84 -59 190 -95 79 -26 96 -28 235 -28 111 0 164 4 205 16 30 9 79 22 109 29
117 26 266 105 334 178 46 49 147 237 147 272 0 41 22 23 88 -68 104 -144 279
-310 416 -393 37 -23 39 -23 52 -5 12 16 11 22 -9 43 -12 13 -51 44 -86 69
-123 86 -295 257 -341 341 -9 15 -27 45 -41 67 -38 60 -67 135 -84 215 -22
102 -19 160 9 225 35 78 58 76 139 -12 81 -89 207 -213 238 -236 147 -107 259
-163 259 -129 0 11 -117 100 -166 125 -36 19 -114 85 -114 97 0 5 25 14 56 20
164 34 387 145 548 272 303 238 460 601 405 938 -32 201 -152 505 -239 607
-27 31 -62 93 -53 93 21 0 167 -93 225 -144 10 -9 36 -27 58 -41 32 -20 45
-24 55 -15 24 20 -3 55 -89 119 -147 109 -215 156 -263 184 -26 15 -61 35 -78
45 -68 42 -263 140 -300 152 -22 7 -49 19 -60 26 -25 16 -142 61 -206 79 -25
7 -88 27 -140 43 -116 37 -314 78 -510 107 -224 33 -592 43 -839 24z m685 -64
c185 -18 243 -27 420 -66 153 -34 251 -60 335 -90 30 -11 100 -36 155 -55 55
-20 107 -42 116 -50 8 -8 21 -14 28 -14 7 0 29 -9 49 -19 20 -11 68 -35 106
-53 74 -36 85 -45 149 -128 132 -169 226 -337 277 -495 12 -38 27 -78 32 -89
5 -10 17 -79 26 -154 13 -115 14 -152 3 -250 -13 -117 -16 -128 -80 -266 -75
-164 -197 -305 -374 -431 -114 -82 -326 -177 -457 -205 -121 -25 -108 -30
-184 60 -78 91 -142 136 -181 126 -15 -4 -41 -28 -61 -57 l-37 -50 -24 50
c-44 88 -166 202 -278 259 -84 42 -140 59 -236 72 -224 28 -411 2 -574 -78
-69 -34 -190 -127 -228 -176 -17 -23 -34 -43 -38 -46 -3 -3 -14 -20 -23 -37
-9 -18 -19 -33 -22 -33 -3 0 -20 16 -38 35 -26 27 -41 35 -67 35 -45 0 -63
-13 -148 -114 -39 -46 -78 -87 -86 -89 -21 -9 -154 19 -285 59 -125 38 -318
129 -390 183 -119 91 -208 201 -266 326 -86 189 -93 512 -17 845 27 121 34
145 68 235 18 50 36 99 39 110 3 11 35 76 71 144 36 68 65 127 65 130 0 7 65
38 160 76 36 14 79 32 95 40 71 32 354 125 381 125 8 0 22 4 32 10 20 11 394
85 507 101 299 40 712 50 980 24z m-560 -2055 c0 -27 -22 -39 -31 -16 -8 22 3
49 19 43 6 -2 12 -14 12 -27z m-141 9 c75 -34 13 -118 -93 -127 -44 -4 -57 -1
-68 14 -23 31 -15 51 35 81 79 47 87 49 126 32z m462 -361 c41 -27 59 -81 50
-147 -11 -80 -93 -135 -201 -134 -100 0 -155 48 -155 135 0 65 64 154 121 169
58 14 146 3 185 -23z m372 -113 c179 -24 223 -38 236 -71 6 -16 -13 -103 -38
-174 -64 -180 -141 -286 -250 -342 -62 -32 -194 -78 -286 -100 -116 -27 -311
-29 -394 -4 -96 28 -209 91 -261 143 -59 58 -126 160 -150 228 -76 212 -75
209 -57 226 36 33 149 68 284 88 76 12 151 21 168 21 30 0 31 -1 24 -34 -9
-48 10 -96 54 -138 43 -41 87 -58 152 -58 129 0 250 98 250 203 0 43 5 48 49
42 20 -3 118 -16 219 -30z"/>
<path d="M2564 3649 c-8 -13 13 -29 38 -29 17 0 96 -23 291 -86 129 -41 150
-43 145 -12 -2 16 -17 26 -58 39 -30 10 -61 19 -68 19 -8 0 -28 6 -45 14 -28
13 -260 66 -286 66 -6 0 -13 -5 -17 -11z"/>
<path d="M4630 3633 c-168 -57 -335 -122 -358 -139 -12 -9 -14 -16 -6 -24 11
-11 14 -10 199 54 55 19 129 45 165 57 77 26 123 51 122 64 -2 18 -46 14 -122
-12z"/>
<path d="M2720 3434 c-39 -13 -90 -38 -90 -44 0 -4 -10 -12 -23 -17 -14 -7
-37 -38 -56 -78 -27 -54 -32 -76 -29 -110 9 -74 42 -128 106 -171 51 -34 63
-38 122 -38 58 0 73 4 125 36 112 69 142 157 90 273 -49 113 -156 177 -245
149z"/>
<path d="M4419 3431 c-91 -28 -140 -91 -155 -199 -13 -101 31 -188 118 -233
70 -36 208 -19 277 33 91 69 81 235 -19 339 -53 56 -148 82 -221 60z"/>
<path d="M3212 3298 c-53 -73 -67 -111 -66 -193 1 -101 16 -136 81 -189 50
-42 60 -46 108 -46 75 0 152 53 208 145 l41 67 25 -29 c15 -17 33 -43 42 -60
9 -17 44 -47 80 -69 61 -37 68 -39 144 -38 67 0 89 5 133 28 124 64 163 151
128 283 -15 56 -71 136 -90 130 -18 -6 -19 -37 -1 -57 42 -46 59 -174 31 -228
-41 -79 -146 -123 -252 -107 -42 6 -56 15 -114 73 -56 57 -69 77 -85 132 -16
51 -24 65 -40 65 -13 0 -21 -9 -26 -30 -38 -166 -152 -280 -257 -259 -36 7
-61 32 -96 96 -46 83 -36 140 52 291 26 45 26 47 7 47 -8 0 -32 -24 -53 -52z"/>
<path d="M2175 3111 c-45 -11 -85 -35 -132 -78 -34 -31 -45 -50 -58 -103 -55
-210 -3 -334 164 -390 64 -22 74 -23 123 -11 123 30 216 103 245 190 23 73 9
199 -28 247 -48 60 -109 111 -154 126 -64 21 -122 28 -160 19z"/>
<path d="M5114 3091 c-56 -25 -127 -96 -158 -156 -20 -39 -26 -64 -26 -115 0
-82 22 -130 86 -196 106 -109 246 -111 357 -5 70 67 81 92 81 187 0 74 -3 84
-37 140 -47 78 -89 121 -140 145 -53 24 -111 24 -163 0z"/>
<path d="M4482 2925 c-84 -24 -184 -102 -238 -187 -28 -44 -30 -58 -9 -58 8 0
15 4 15 9 0 4 27 37 59 73 107 116 234 159 381 129 82 -17 84 -17 88 1 5 27
-35 40 -142 44 -70 3 -117 -1 -154 -11z"/>
<path d="M3614 1612 c-19 -12 -45 -85 -39 -109 6 -27 72 -63 113 -63 32 0 79
43 82 75 4 40 0 55 -25 80 -21 20 -36 25 -73 25 -26 0 -52 -4 -58 -8z m107
-51 c23 -19 23 -21 9 -48 -17 -30 -38 -38 -76 -29 -32 8 -42 50 -19 76 23 25
56 25 86 1z"/>
<path d="M5915 1111 c-64 -17 -78 -30 -72 -69 2 -21 23 -68 45 -107 22 -38 58
-102 79 -142 62 -117 124 -223 175 -302 26 -40 48 -79 48 -86 0 -15 -74 -25
-190 -25 -99 0 -136 -14 -133 -50 0 -14 8 -65 17 -115 8 -50 18 -108 21 -130
12 -79 15 -85 36 -85 18 0 19 5 14 52 -7 57 -23 181 -32 239 -7 47 0 49 188
49 191 0 198 7 117 117 -21 28 -50 73 -64 100 -15 26 -41 71 -59 98 -18 28
-47 79 -65 115 -18 36 -36 67 -40 70 -14 10 -102 202 -95 208 15 15 347 13
540 -4 110 -9 249 -19 308 -21 85 -3 109 -8 114 -19 3 -9 -1 -79 -10 -157 -9
-78 -19 -191 -23 -252 -4 -65 -13 -122 -21 -139 l-15 -29 -81 7 c-45 3 -110 9
-144 12 -61 7 -63 6 -73 -20 -5 -15 -10 -83 -10 -150 0 -146 11 -136 -150
-136 -136 0 -171 -10 -189 -52 -7 -18 -19 -45 -26 -60 -13 -28 -13 -28 21 -28
23 0 34 5 34 14 0 8 10 27 23 41 21 25 27 26 169 32 81 3 153 10 160 14 9 6
14 48 18 146 5 130 6 138 25 137 11 -1 58 -6 104 -13 103 -13 157 -6 177 24 9
13 18 67 23 131 14 173 31 325 42 372 5 23 9 69 9 101 l0 58 -37 6 c-21 4
-108 11 -193 17 -85 6 -182 16 -215 21 -76 13 -530 21 -570 10z"/>
</g>
</svg>
